<?xml version="1.0" encoding="iso-8859-1"?>
<!-- Uploaded to: SVG Repo, www.svgrepo.com, Generator: SVG Repo Mixer Tools -->
<svg fill="#000000" height="800px" width="800px" version="1.1" id="Layer_1" xmlns="http://www.w3.org/2000/svg" xmlns:xlink="http://www.w3.org/1999/xlink" 
	 viewBox="0 0 512 512" xml:space="preserve">
<g>
	<g>
		<g>
			<path d="M460.8,281.6h-51.2c-4.71,0-8.533,3.823-8.533,8.533c0,4.71,3.823,8.533,8.533,8.533h51.2
				c4.71,0,8.533-3.823,8.533-8.533C469.333,285.423,465.51,281.6,460.8,281.6z"/>
			<path d="M384,349.867h-93.867c-4.71,0-8.533,3.823-8.533,8.533c0,4.71,3.823,8.533,8.533,8.533H384
				c4.71,0,8.533-3.823,8.533-8.533C392.533,353.69,388.71,349.867,384,349.867z"/>
			<path d="M460.8,349.867h-42.667c-4.71,0-8.533,3.823-8.533,8.533c0,4.71,3.823,8.533,8.533,8.533H460.8
				c4.71,0,8.533-3.823,8.533-8.533C469.333,353.69,465.51,349.867,460.8,349.867z"/>
			<path d="M418.133,332.8H435.2c4.71,0,8.533-3.823,8.533-8.533s-3.823-8.533-8.533-8.533h-17.067c-4.71,0-8.533,3.823-8.533,8.533
				S413.423,332.8,418.133,332.8z"/>
			<path d="M238.933,298.667h25.6c4.71,0,8.533-3.823,8.533-8.533c0-4.71-3.823-8.533-8.533-8.533h-25.6
				c-4.71,0-8.533,3.823-8.533,8.533C230.4,294.844,234.223,298.667,238.933,298.667z"/>
			<path d="M256,349.867h-17.067c-4.71,0-8.533,3.823-8.533,8.533c0,4.71,3.823,8.533,8.533,8.533H256
				c4.71,0,8.533-3.823,8.533-8.533C264.533,353.69,260.71,349.867,256,349.867z"/>
			<path d="M384,315.733h-25.6c-4.71,0-8.533,3.823-8.533,8.533s3.823,8.533,8.533,8.533H384c4.71,0,8.533-3.823,8.533-8.533
				S388.71,315.733,384,315.733z"/>
			<path d="M298.667,298.667h76.8c4.71,0,8.533-3.823,8.533-8.533c0-4.71-3.823-8.533-8.533-8.533h-76.8
				c-4.71,0-8.533,3.823-8.533,8.533C290.133,294.844,293.956,298.667,298.667,298.667z"/>
			<path d="M324.267,324.267c0-4.71-3.823-8.533-8.533-8.533h-51.2c-4.71,0-8.533,3.823-8.533,8.533s3.823,8.533,8.533,8.533h51.2
				C320.444,332.8,324.267,328.977,324.267,324.267z"/>
			<path d="M469.333,247.467h-6.699c9.421-13.858,15.232-35.089,15.232-59.733c0-43.785-18.338-76.8-42.667-76.8H110.933
				c-32.939,0-59.733,34.458-59.733,76.8c0,24.115,8.704,45.645,22.272,59.733H59.733C26.795,247.467,0,281.924,0,324.267
				s26.795,76.8,59.733,76.8h102.4h307.2c24.329,0,42.667-33.016,42.667-76.8S493.662,247.467,469.333,247.467z M68.267,341.333
				c0,4.71-3.823,8.533-8.533,8.533s-8.533-3.823-8.533-8.533V307.2c0-4.71,3.823-8.533,8.533-8.533s8.533,3.823,8.533,8.533
				V341.333z M443.733,221.867c0,4.71-3.823,8.533-8.533,8.533H384c-4.71,0-8.533-3.823-8.533-8.533c0-4.71,3.823-8.533,8.533-8.533
				h51.2C439.91,213.333,443.733,217.156,443.733,221.867z M384,187.733c0-4.71,3.823-8.533,8.533-8.533h25.6
				c4.71,0,8.533,3.823,8.533,8.533s-3.823,8.533-8.533,8.533h-25.6C387.823,196.267,384,192.444,384,187.733z M375.467,145.067
				h51.2c4.71,0,8.533,3.823,8.533,8.533s-3.823,8.533-8.533,8.533h-51.2c-4.71,0-8.533-3.823-8.533-8.533
				S370.756,145.067,375.467,145.067z M358.4,187.733c0,4.71-3.823,8.533-8.533,8.533h-25.6c-4.71,0-8.533-3.823-8.533-8.533
				s3.823-8.533,8.533-8.533h25.6C354.577,179.2,358.4,183.023,358.4,187.733z M247.467,213.333h93.867
				c4.71,0,8.533,3.823,8.533,8.533c0,4.71-3.823,8.533-8.533,8.533h-93.867c-4.71,0-8.533-3.823-8.533-8.533
				C238.933,217.156,242.756,213.333,247.467,213.333z M204.8,196.267c-4.71,0-8.533-3.823-8.533-8.533s3.823-8.533,8.533-8.533
				h76.8c4.71,0,8.533,3.823,8.533,8.533s-3.823,8.533-8.533,8.533H204.8z M256,145.067h76.8c4.71,0,8.533,3.823,8.533,8.533
				s-3.823,8.533-8.533,8.533H256c-4.71,0-8.533-3.823-8.533-8.533S251.29,145.067,256,145.067z M187.733,145.067h25.6
				c4.71,0,8.533,3.823,8.533,8.533s-3.823,8.533-8.533,8.533h-25.6c-4.71,0-8.533-3.823-8.533-8.533
				S183.023,145.067,187.733,145.067z M187.733,213.333H204.8c4.71,0,8.533,3.823,8.533,8.533c0,4.71-3.823,8.533-8.533,8.533
				h-17.067c-4.71,0-8.533-3.823-8.533-8.533C179.2,217.156,183.023,213.333,187.733,213.333z M68.267,187.733
				c0-32.939,19.14-59.733,42.667-59.733c23.526,0,42.667,26.795,42.667,59.733s-19.14,59.733-42.667,59.733
				C87.407,247.467,68.267,220.672,68.267,187.733z M124.629,264.533c-0.051,0.051-0.094,0.128-0.145,0.179
				c-2.44,2.56-4.685,5.393-6.784,8.405c-0.299,0.427-0.606,0.836-0.896,1.271c-1.98,2.97-3.763,6.153-5.385,9.489
				c-0.145,0.307-0.341,0.555-0.486,0.862c-0.145-0.307-0.341-0.555-0.486-0.862c-1.621-3.337-3.405-6.519-5.385-9.489
				c-0.29-0.435-0.597-0.845-0.896-1.271c-2.099-3.012-4.343-5.845-6.784-8.405c-0.051-0.051-0.094-0.128-0.145-0.179h13.696
				H124.629z M97.237,384c0.051-0.051,0.094-0.128,0.145-0.179c2.441-2.56,4.685-5.393,6.784-8.405
				c0.299-0.427,0.606-0.836,0.896-1.271c1.98-2.97,3.763-6.153,5.385-9.489c0.145-0.307,0.341-0.555,0.486-0.862
				c0.145,0.307,0.341,0.555,0.486,0.862c1.621,3.337,3.405,6.519,5.385,9.489c0.29,0.435,0.597,0.845,0.896,1.271
				c2.099,3.012,4.344,5.845,6.784,8.405c0.051,0.051,0.094,0.128,0.145,0.179H97.237z M162.133,384
				c-23.526,0-42.667-26.795-42.667-59.733s19.14-59.733,42.667-59.733c23.526,0,42.667,26.795,42.667,59.733
				S185.66,384,162.133,384z M469.333,384H199.637c0.068-0.077,0.137-0.162,0.205-0.239c1.596-1.672,3.132-3.439,4.582-5.316
				c0.213-0.273,0.401-0.589,0.614-0.87c1.212-1.613,2.389-3.285,3.49-5.035c0.444-0.7,0.845-1.459,1.271-2.185
				c0.811-1.391,1.613-2.79,2.355-4.25c0.444-0.862,0.845-1.758,1.254-2.654c0.648-1.399,1.28-2.816,1.86-4.275
				c0.384-0.964,0.742-1.937,1.101-2.918c0.521-1.468,1.007-2.961,1.468-4.48c0.299-1.016,0.597-2.031,0.87-3.063
				c0.418-1.579,0.768-3.183,1.101-4.804c0.213-1.024,0.435-2.031,0.614-3.063c0.316-1.801,0.538-3.635,0.742-5.478
				c0.102-0.896,0.247-1.775,0.324-2.688c0.23-2.765,0.375-5.564,0.375-8.414s-0.145-5.649-0.375-8.414
				c-0.077-0.913-0.222-1.792-0.324-2.688c-0.205-1.843-0.427-3.678-0.742-5.478c-0.179-1.033-0.401-2.039-0.614-3.063
				c-0.333-1.621-0.683-3.226-1.101-4.804c-0.273-1.033-0.572-2.048-0.87-3.063c-0.461-1.519-0.947-3.012-1.468-4.48
				c-0.358-0.981-0.717-1.954-1.101-2.918c-0.58-1.459-1.212-2.876-1.86-4.275c-0.41-0.896-0.811-1.792-1.254-2.654
				c-0.742-1.459-1.545-2.859-2.355-4.25c-0.427-0.725-0.828-1.485-1.271-2.185c-1.101-1.749-2.278-3.422-3.49-5.035
				c-0.213-0.282-0.401-0.597-0.614-0.87c-1.451-1.877-2.987-3.644-4.582-5.316c-0.068-0.077-0.137-0.162-0.205-0.239H435.2h34.133
				c12.083,0,25.6,25.549,25.6,59.733C494.933,358.451,481.417,384,469.333,384z"/>
			<path d="M162.133,298.667c-4.71,0-8.533,3.823-8.533,8.533v34.133c0,4.71,3.823,8.533,8.533,8.533
				c4.71,0,8.533-3.823,8.533-8.533V307.2C170.667,302.49,166.844,298.667,162.133,298.667z"/>
			<path d="M119.467,204.8v-34.133c0-4.71-3.823-8.533-8.533-8.533s-8.533,3.823-8.533,8.533V204.8c0,4.71,3.823,8.533,8.533,8.533
				S119.467,209.51,119.467,204.8z"/>
		</g>
	</g>
</g>
</svg>